# xmcd
#
# Track frame offsets:
#	182
#	12742
#	26575
#	42385
#	55030
#	71825
#	89227
#	106097
#	118357
#	132710
#	149117
#	159770
#
# Disc length: 2349 seconds
#
# Revision: 1
# Processed by: cddbd v1.5.1PL0 Copyright (c) Steve Scherf et al.
# Submitted via: audiograbber 1.83.01
#
DISCID=b9092b0c
DTITLE=Ernie Constance - Boots'N'All
DYEAR=1900
DGENRE=Country
TTITLE0=What Can I Do For Australia
TTITLE1=Liveringa Station
TTITLE2=Sunday Morning Song
TTITLE3=I'm A Dinkum Aussie
TTITLE4=Lonesome You And Me
TTITLE5=Every Road I Travel
TTITLE6=Men Of Timber
TTITLE7=What's So Wrong With That
TTITLE8=The Hardest Man On Earth
TTITLE9=The Door Of Friendship
TTITLE10=Wombat On The Loo
TTITLE11=Boots'N'All
EXTD=
EXTT0=
EXTT1=
EXTT2=
EXTT3=
EXTT4=
EXTT5=
EXTT6=
EXTT7=
EXTT8=
EXTT9=
EXTT10=
EXTT11=
PLAYORDER=
